<svg xmlns="http://www.w3.org/2000/svg" viewBox="0 0 64 64">
  <circle cx="32" cy="32" r="30" fill="#9E0A22" stroke="#D4AF37" stroke-width="2"/>

  <path d="M32 10 Q24 18 24 24 Q24 29 28 31 Q27 26 32 20 Q37 26 36 31 Q40 29 40 24 Q40 18 32 10 Z" fill="#D4AF37"/>

  <rect x="22" y="32" width="20" height="2" fill="#D4AF37" rx="1"/>
  <path d="M24 34 L40 34 L36 39 L28 39 Z" fill="#D4AF37"/>

  <path d="M28 42 Q28 39 32 39 Q36 39 36 43 Q36 47 32 49 L32 52" fill="none" stroke="#D4AF37" stroke-width="4" stroke-linecap="round"/>

  <circle cx="32" cy="56" r="2.5" fill="#D4AF37"/>
</svg>
