<?xml version="1.0" encoding="UTF-8" standalone="no"?>
<svg xmlns:rdf="http://www.w3.org/1999/02/22-rdf-syntax-ns#" xmlns="http://www.w3.org/2000/svg" version="1.0" xmlns:cc="http://creativecommons.org/ns#" xmlns:dc="http://purl.org/dc/elements/1.1/" viewBox="0 0 244.65 46.56">
 <path d="m31.918 1.1212c-4.437-0.12578-25.56 7.9632-30.213 11.772-2.7573 2.257 0.0936 2.62 3.0512 0.388 2.6926-2.031 14.519-7.6012 16.139-7.6012 0.28117 0-0.80921 3.7125-2.4238 8.25s-3.6627 11.175-4.5508 14.75c-0.88805 3.575-2.258 8.4284-3.0449 10.785-0.78694 2.3567-1.4297 4.7192-1.4297 5.25 0 0.53078 0.675 0.96484 1.5 0.96484 0.89264 0 1.4939-0.91105 1.4863-2.25-0.02163-3.8488 9.5224-35.647 11.514-38.361 0.55-0.74965 2.4625-1.6488 4.25-2 4.1827-0.8217 4.2392 0.72042 0.19531 5.3262-1.6801 1.9135-2.9142 4.2105-2.7422 5.1035 0.17198 0.89304 2.236 2.3112 4.5879 3.1523s5.8745 2.8163 7.8262 4.3887l3.5469 2.8574-2.582 2.6973c-2.8591 2.9842-3.2699 5.2689-1.25 6.9453 2.2284 1.8494 4.9214-1.0311 5.5801-5.9668 0.80273-6.0154 3.1505-5.8474 5.0137 0.35742 0.78447 2.6125 1.9862 4.75 2.6719 4.75 0.68572 0 2.5514-1.3033 4.1445-2.8965l2.8965-2.8965 1.0938 2.8965c1.6761 4.4406 6.6174 3.9584 9.1738-0.89453l1.207-2.291 1.9102 2.291c2.3305 2.795 2.537 1.2244 0.40234-3.0547-1.7308-3.4694-3.4258-4.1513-3.4258-1.377 0 2.6737-2.8633 6.2227-5.0195 6.2227-1.376 0-2.2024-1.1103-2.9805-4-0.5924-2.2-1.3978-3.9951-1.7891-3.9883s-1.7281 1.5818-2.9707 3.5c-2.7312 4.2162-4.7944 4.4674-5.5527 0.67578-0.30931-1.5465-1.4618-3.909-2.5605-5.25-1.9268-2.3515-2.0467-2.3717-3.3906-0.5625-1.3413 1.8057-1.4942 1.7773-4.0488-0.77734-1.4597-1.4597-4.7896-3.5703-7.4004-4.6895-2.6108-1.1191-4.9284-2.2155-5.1504-2.4375-0.22196-0.22197 1.0053-2.01 2.7285-3.9727 3.0561-3.4807 4.0159-6.8351 2.2637-7.918-0.13769-0.0851-0.36042-0.13029-0.65625-0.13867zm97.834 1.2969c-0.482 0.06103-0.9658 0.72934-1.1387 1.627-0.23391 1.2146 0.11013 1.7081 0.98633 1.416 1.5586-0.51953 1.8128-2.6629 0.35938-3.0312-0.0678-0.01719-0.13818-0.02044-0.20704-0.01172zm-28.383 2.2617c-5.3387 0-11.887 11.34-10.416 18.037 2.0147 9.173 9.3483 10.416 17.777 3.0156l3.5098-3.0801 1.0488 3.0137c1.1765 3.375 3.4781 3.8759 6.873 1.498 1.999-1.4002 2.3535-1.3223 4.6992 1.0234 2.4093 2.4093 2.71 2.4651 5.9453 1.1133 3.0199-1.2618 3.5897-1.2403 5.0078 0.17774 1.4668 1.4668 1.8325 1.428 4.3848-0.45898 2.5144-1.859 2.999-1.9165 5-0.58789 1.9861 1.3187 2.6243 1.2679 6.1699-0.48633 3.4722-1.7179 4.1353-1.7768 5.4199-0.49219 0.80491 0.8049 1.9558 1.1577 2.5586 0.78516 1.4001-0.86532 1.4163-3.8396 0.0273-5.2285-0.76005-0.76005-0.29577-1.2193 1.6016-1.582 2.4788-0.47384 2.6297-0.30455 2.1035 2.3262-0.44969 2.2484-0.0294 3.2564 2.0332 4.8789 3.1153 2.4505 6.3631 2.5977 10.469 0.47461 2.6523-1.3715 3.1866-1.3844 4.2012-0.11328 0.63921 0.80082 1.8371 1.6973 2.6621 1.9922 0.825 0.29485 1.6261 0.56986 1.7812 0.61328 0.15516 0.04342 1.83-0.56661 3.7227-1.3574 2.5166-1.0515 4.3225-1.1829 6.7188-0.48828 4.9013 1.4207 45.212 0.81322 47.299-0.71289 2.6091-1.9078 0.93673-3.3212-2.7793-2.3477-5.7025 1.494-26.989 2.9114-34.742 2.3125-9.1657-0.70799-12.174-1.7122-11.375-3.7949 0.92395-2.4078-0.5698-1.8018-3.625 1.4688-3.0874 3.3051-4.7038 3.6674-7.4355 1.6699-1.5327-1.1207-1.6296-1.6833-0.61133-3.5859 1.969-3.6791 0.43245-3.536-3.4199 0.31641-4.6044 4.6044-6.7169 4.766-5.8535 0.44922 0.69664-3.4832-1.6165-6.1948-4.3789-5.1348-0.82705 0.31737-1.8337 0.04404-2.2363-0.60742-0.54015-0.87397-1.4625-0.90784-3.5215-0.125-2.305 0.87638-3.0271 0.75295-4.1484-0.71094-0.96673-1.2621-1.579-1.4373-2.1289-0.61133-0.42474 0.63787-2.1213 1.3381-3.7695 1.5566l-2.9961 0.39648 2.8809 1.2188c2.8195 1.192 2.842 1.2629 1.0508 3.2422-2.1228 2.3456-7.9316 2.3529-7.9316 0.0098 0-2.3504-1.9555-2.2454-3.0117 0.16211-0.64651 1.4737-1.8536 2.2539-3.4883 2.2539-1.9839 0-2.5653-0.56771-2.8164-2.75-0.34836-3.0276-2.1836-3.8272-2.1836-0.95117 0 2.571-1.9761 4.2012-5.0938 4.2012-2.8578 0-3.9062-1.5222-3.9062-5.666 0-2.9873-2.3494-2.6924-2.8008 0.35156-0.16554 1.1165-1.4493 2.6441-2.8516 3.3945-2.2816 1.2211-2.7031 1.1581-4.0078-0.60742-1.4648-1.9821-1.3971-3.2349 0.49023-9.209 0.67534-2.1377 0.68363-3.446 0.0273-3.8516-0.5465-0.33776-1.2469 0.35469-1.5566 1.5391-2.2638 8.6569-9.4138 15.358-15.801 14.807-2.4699-0.21309-3.2092-0.89592-4.1777-3.8633-1.5608-4.7818-0.04431-11.52 3.4043-15.127 3.0033-3.1416 4.7437-2.4496 5.7871 2.3008 0.77892 3.5464 2.4863 3.887 2.4863 0.49609 0-4.2509-1.7862-7.5645-4.0762-7.5645zm-51.893 6.0002c-1.339 0-1.7861 0.47971-1.3945 1.5 0.74752 1.948 3.3633 1.948 3.3633 0 0-0.82536-0.88554-1.5-1.9688-1.5zm119.04 12c1.5718 0 1.9927 0.53909 1.75 2.2402-0.4742 3.3237-3.8184 3.6144-3.8184 0.33203 0-1.9355 0.51178-2.5723 2.0684-2.5723zm-11.693 1.3477c0.32651-0.06529 0.99476 0.39345 1.6035 1.127 0.78875 0.95039 0.86623 1.5254 0.20312 1.5254-1.2085 0-2.6193-1.8983-1.9258-2.5918 0.0315-0.03146 0.0725-0.05122 0.11914-0.06055zm-115.41 3.697c0.13996 0.06429 0.01732 0.48086-0.28516 1.2871-0.37798 1.0075-0.68555 2.02-0.68555 2.25 0 0.23001-0.45 0.41797-1 0.41797-1.5393 0-1.1888-1.6023 0.68555-3.127 0.74263-0.60407 1.1452-0.89242 1.2852-0.82812z"/>
</svg>