<?xml version="1.0" encoding="UTF-8" standalone="no"?>
<!-- Created with Inkscape (http://www.inkscape.org/) -->
<svg xmlns:rdf="http://www.w3.org/1999/02/22-rdf-syntax-ns#" xmlns="http://www.w3.org/2000/svg" version="1.1" xmlns:cc="http://creativecommons.org/ns#" xmlns:dc="http://purl.org/dc/elements/1.1/" viewBox="0 0 321.7 315.8">

 <defs>

  <clipPath id="clipPath4248" clipPathUnits="userSpaceOnUse">

   <path d="m0,841.9,595.3,0v-841.9h-595.3v841.9z"/>

  </clipPath>

 </defs>

 <metadata>

  <rdf:RDF>

   <cc:Work rdf:about="">

    <dc:format>image/svg+xml</dc:format>

    <dc:type rdf:resource="http://purl.org/dc/dcmitype/StillImage"/>

    <dc:title/>

   </cc:Work>

  </rdf:RDF>

 </metadata>

 <g transform="translate(-228.90062,-306.03465)">

  <g transform="matrix(1.206046,0,0,-1.206046,46.286431,946.60321)">

   <g clip-path="url(#clipPath4248)">

    <g transform="translate(179,443.8896)">

     <path stroke-linejoin="miter" d="m0,0,7.5,10.5,6.5,12,6,13.5,6,14,5,12c2.185,5.93,5.928,13.05,3.995,19.5-6.32,1.62-14.42-11.8-18-16l-10.5-14.5-10.5-19-8.5-18.5s-6.98-22.44-7-22.5c-1.667-5.357-2.889-12.61-2.206-18.16,1.127-9.153,7.454-6.493,13.71-2.838,0,0,7.383,5.414,7.499,5.499,3.382,2.48,7.453,4.284,11.5,5.501,3.608,1.084,0.254-18.33,0.002-20l-6.5-20-7.5-19.5-6.5-18-5-13-5.5-16" stroke="#231f20" stroke-linecap="butt" stroke-miterlimit="4" stroke-dasharray="none" stroke-width="2" fill="none"/>

    </g>

    <g transform="translate(198.5,437.8896)">

     <path stroke-linejoin="miter" d="m0,0,2.5-3,4.5,0,5.5,5,7,9.5c4.11,7.2,17.26,23.77,11,32-1.97,2.58-13.48-15.82-14.5-17.5,0,0-6.5-15-6.5-15-1.518-6.07-10.9-29.86-5.007-34,3.44-2.41,12.56,10.69,14.01,12.5l8.5,12,8,14,5.5,11s-2.472,1.977-2.497,1.998c1.97-1.77-6.69-26.31-7.5-29.5-0.84-5.616-1.52-9.9-0.5-15.5,0.339-1.864,8.935,10.73,9.388,11.58,1.87,3.475,3.741,6.949,5.612,10.42l8.5,16.5,9,17.5c3.434,4.905,6.153,9.519,11.5,12.5-1.05-0.59-4.51-11.44-5.35-13.2-1.55-3.27-3.1-6.53-4.65-9.8l-8-15.5-5.5-15-19.5-63-5.5-25-6.5-36c-3.237-12.59-5.578-24.48-6.5-37.5-0.022-0.323,4.285,4.762,4.679,5.865,0.855,2.398,1.14,5.166,1.821,7.634l5.5,26,7.5,30.5" stroke="#231f20" stroke-linecap="butt" stroke-miterlimit="4" stroke-dasharray="none" stroke-width="2" fill="none"/>

    </g>

    <g transform="translate(239,422.8896)">

     <path stroke-linejoin="miter" d="m0,0,8,5,9,11,7,12.5c3.682,7.1,7.119,13.83,9.497,21.5-0.416,0.441-1.908,1.342-2.494,1.497-3.64-5.78-6.59-11.33-9.51-17.5l-3-10c-2.56-9.38-6.25-18.7-5.5-28.5,0.41-5.357,15.67,9.467,16.5,10.5l9.5,17,3,8-0.5,4-3-3.5-3.5-8-2-6.5c-1.5-9.334-3-18.67-4.5-28,10.16,17.81,17.58,37.12,27.75,54.91,3.31,5.78,6.4,9.62,11.25,14.09-12.43-18.56-17.33-45.29-21.81-67.2-0.83-4.047-7.34-21.9-1.61-23.77,7.2,15.05,13.86,30.35,20.92,45.47l12,24s11.49,22.98,11.5,23c3.043,6.086,8.857,12.41,13.5,17.5,0.742-0.132,2.431-0.962,2.997-1.499,2.9-2.78-10.38-32.73-12-37.5l-7-21.5-5.5-24-5.5-26-6.5-41-3.5-27-2.5-24.5c-0.229-6.204-1.16-12.2,1.495-17.99,1.527-3.334,7.88,9.649,8.005,9.988l8.5,44,4.5,19.5c2.125,9.829,4.316,19.44,7.5,29-2.046-6.143-1.16-14.32-2.813-20.96-1.52-6.08-2.95-12.17-4.43-18.25-2.1-8.59-4.15-17.2-6.26-25.79l35.5,102,14.5,35,12,27s9.269,19.51,9.496,19.99c1.977,4.162,5.176,11.74,10,13.01,1.412,0.372-4.255-18.28-4.81-19.61-1.9-4.62-3.8-9.26-5.7-13.89l-11.5-34.5-10.5-30-7-33.5-3.5-22-1.5-28-0.5-20c1.027-5.649,1.75-10.63,4.997-15.5,1.549-2.321,7.277,15.01,7.503,16l4.5,19s8.5,22,8.5,22c2.291,5.832,8.333,26.72,17.5,24,1.674-0.496-0.33-16.91-0.498-19-0.421-5.477-3.652-19.83,5.841-19.42,6.173,0.269,7.871,6.576,9.659,11.42" stroke="#231f20" stroke-linecap="butt" stroke-miterlimit="4" stroke-dasharray="none" stroke-width="2" fill="none"/>

    </g>

   </g>

  </g>

 </g>

</svg>