<?xml version="1.0" encoding="UTF-8"?>
<svg version="1.1" xmlns="http://www.w3.org/2000/svg" width="159" height="176">
<path d="M120.955,60.333c-0.146-0.639-3.036-10.244-4.436-6.312c-0.81,2.275-0.454,5.347-0.501,7.704 c-0.122,6.042-0.031,12.091,0.045,18.133c0.182,14.39,0.279,28.821,1.213,43.185c0.298,4.583,0.704,9.184,1.551,13.7 c0.217,1.161,0.63,4.702,2.159,5.109c5.329,1.417,7.19-26.003,7.637-29.317c2.661-19.697,4.349-39.461,6.028-59.26 c1.489-17.555,1.712-36.097,6.544-53.125c0.086-0.302-1.325-0.111-1.43,0.255c-5.483,19.325-5.495,40.594-7.176,60.501 c-1.636,19.365-3.491,38.673-6.233,57.918c-1.008,7.077-1.687,14.728-4.077,21.515c-0.451,1.28-0.129,1.055-0.582,0.454 c-0.614-0.813-0.843-1.992-1.094-2.951c-1.165-4.445-1.424-9.192-1.776-13.753c-1.101-14.274-1.082-28.657-1.292-42.966 c-0.086-5.838-0.142-11.677-0.098-17.515c0.023-3.066-0.463-7.104,0.587-10.055c-0.698,1.96,0.959,4.877,1.481,7.169 C119.579,61.04,121.033,60.677,120.955,60.333L120.955,60.333z"/>
<path d="M130.495,115.327c-0.831,3.291-1.614,6.594-2.363,9.903c-0.621,2.742-2.787,8.137-1.722,10.935 c0.817,2.146,3.079-2.584,3.147-2.737c2.81-6.388,4.603-13.414,6.159-20.2c-0.49,0.033-0.98,0.066-1.471,0.1 c-1.03,4.669-2,9.353-2.91,14.047c-0.348,1.793-3.321,11.465-1.411,12.831c1.885,1.35,9.841-18.771,9.267-21.69 c-0.099-0.505-0.932-0.397-1.209-0.153c-1.96,1.723-2.495,7.971-3.092,10.323c-0.35,1.378-3.691,11.258-2.051,12.221 c2.672,1.568,8.3-18.749,9.086-21.285c-0.477-0.014-0.954-0.028-1.431-0.043c-1.229,4.932-2.399,9.892-3.295,14.896 c-0.117,0.653-1.013,6.604,1.394,4.087c1.141-1.193,1.644-3.445,2.203-4.936c1.305-3.479,2.436-7.024,3.542-10.57 c0.933-2.984,1.813-5.988,2.586-9.019c0.278-1.092,0.272-2.978,0.733-3.893c-0.473,0.034-0.946,0.067-1.42,0.102 c0.137,1.345-0.406,3.079-0.607,4.405c-0.675,4.444-1.477,8.87-2.286,13.291c-1.144,6.252-2.122,12.561-3.925,18.666 c-4.648,15.747-16.502,24.46-32.494,27.014c-10.515,1.68-21.564,1.033-32.179,1.072c-11.243,0.041-22.487-0.04-33.729-0.219 c-9.22-0.147-18.442-0.364-27.654-0.788c-2.671-0.122-5.34-0.273-8.005-0.49c-0.92-0.075-3.335,0.074-4.074-0.597 c-0.496-0.452-1.744,0.28-1.111,0.855c1.986,1.808,8.424,1.099,10.816,1.227c8.973,0.479,17.964,0.67,26.947,0.84 c12.229,0.231,24.46,0.304,36.69,0.271c11.655-0.031,23.614,0.518,35.125-1.574c14.758-2.681,25.686-11.626,30.541-25.797 c1.988-5.804,2.934-11.914,4.03-17.93c0.968-5.307,1.947-10.61,2.777-15.94c0.227-1.457,0.737-3.203,0.586-4.694 c-0.068-0.677-1.227-0.281-1.42,0.102c-1.09,2.163-1.199,5.713-1.865,8.054c-1.554,5.463-3.295,10.894-5.291,16.212 c-0.325,0.868-0.678,1.726-1.049,2.575c-0.755,1.726-0.094,0.46,0.219,1.292c-0.595-1.581,0.569-4.74,0.877-6.302 c0.813-4.128,1.79-8.229,2.808-12.312c0.17-0.684-1.258-0.6-1.431-0.043c-0.941,3.034-1.922,6.058-2.926,9.072 c-0.815,2.451-1.665,4.891-2.568,7.312c-0.351,0.938-0.728,1.866-1.124,2.786c-0.145,0.331-0.301,0.657-0.467,0.979 c-0.547,0.577-0.342,0.762,0.616,0.553c-0.935-2.534,1.46-8.172,2.067-10.641c0.565-2.297,1.381-9.175,2.819-10.439 c-0.403-0.051-0.807-0.103-1.21-0.153c0.245,1.247-0.911,3.387-1.286,4.569c-0.791,2.492-1.658,4.961-2.549,7.419 c-0.807,2.224-1.664,4.431-2.64,6.586c-0.973,2.147-0.342,2.181-0.132-0.079c0.751-8.11,2.829-16.229,4.582-24.171 c0.163-0.737-1.319-0.562-1.471,0.1c-1.317,5.746-2.969,11.414-4.938,16.971c-0.616,1.739-1.241,3.625-2.27,5.175 c0.458-0.689,0.678,0.653,0.767-0.78c0.037-0.596,0.142-1.192,0.231-1.782c0.896-5.952,2.458-11.851,3.931-17.683 C132.148,114.505,130.662,114.668,130.495,115.327L130.495,115.327z"/>
<path d="M117.585,94.669c5.195-1.129,10.354-1.918,15.656-2.232c8.272-0.49,16.416-2.165,24.713-2.473 c0.566-0.021,1.526-0.908,0.551-0.872c-8.628,0.32-17.14,2.297-25.75,2.5c-5.167,0.122-10.34,1.199-15.38,2.294 C116.484,94.08,116.709,94.859,117.585,94.669L117.585,94.669z"/>
<path d="M137.433,93.75c3.262-1.703,3.498-5.813,3.551-9.014c0.073-4.521,2.013-8.442,3.362-12.656 c1.46-4.56,2.807-9.155,4.219-13.729c0.84-2.722,1.447-7.319,3.342-9.554c0.42-0.495-1.044-0.403-1.352-0.04 c-1.421,1.676-1.88,4.826-2.526,6.85c-1.399,4.384-2.708,8.797-4.058,13.197c-1.049,3.423-2.282,6.735-3.465,10.108 c-1.457,4.151,0.613,11.996-3.978,14.392C135.664,93.755,136.95,94.002,137.433,93.75L137.433,93.75z"/>
</svg>