<?xml version="1.0" encoding="UTF-8" standalone="no"?>
<!DOCTYPE svg PUBLIC "-//W3C//DTD SVG 20010904//EN" "http://www.w3.org/TR/2001/REC-SVG-20010904/DTD/svg10.dtd">
<svg version="1.0" xmlns="http://www.w3.org/2000/svg" width="333.000000pt" height="123.000000pt" viewBox="0 0 333.000000 123.000000" preserveAspectRatio="xMidYMid meet">

<g transform="translate(0.000000,123.000000) scale(0.100000,-0.100000)" fill="#000000" stroke="none">
<path d="M799 1120 c-80 -20 -153 -63 -214 -125 -108 -109 -112 -190 -20 -358 l36 -65 -28 -24 c-15 -13 -62 -62 -103 -108 -82 -92 -208 -215 -282 -276 -46 -39 -60 -64 -35 -64 12 0 134 104 184 157 12 12 26 23 32 23 5 0 11 4 13 9 2 6 43 50 91 100 76 77 91 89 106 79 14 -8 30 -8 64 0 62 16 67 15 67 -8 0 -18 6 -20 38 -19 23 2 55 -7 87 -23 83 -43 154 -60 192 -47 18 6 33 17 33 25 0 16 -26 19 -35 4 -3 -6 -17 -10 -30 -10 -23 0 -138 40 -132 46 2 2 19 5 40 8 20 2 45 7 57 11 11 4 20 2 20 -4 0 -13 69 -14 90 -1 9 6 17 5 21 -2 7 -10 23 -7 80 17 12 4 18 0 22 -16 5 -19 11 -21 42 -16 19 3 49 16 66 28 30 21 33 21 59 5 16 -9 39 -16 53 -16 37 0 78 18 76 32 -2 7 6 30 16 51 23 45 13 57 -48 57 -48 0 -41 15 20 42 45 20 49 38 7 38 -32 0 -104 -65 -104 -95 0 -23 -38 -58 -97 -89 -49 -25 -57 -20 -34 19 26 44 12 53 -37 23 -45 -28 -69 -33 -51 -12 8 10 9 18 2 25 -7 7 -21 1 -45 -20 -19 -17 -47 -35 -61 -40 -26 -10 -27 -9 -25 22 4 47 -29 48 -92 3 -28 -20 -60 -36 -72 -36 -21 0 -21 1 5 28 15 15 27 31 27 35 0 14 -30 6 -66 -18 -34 -23 -64 -32 -64 -19 0 3 5 14 10 24 13 25 -1 32 -37 18 -25 -9 -34 -8 -56 8 -15 10 -27 24 -27 30 0 6 42 58 93 116 162 183 189 218 217 280 41 90 13 144 -80 152 -30 3 -71 1 -91 -4z m144 -38 c9 -8 17 -25 17 -38 0 -27 -30 -94 -42 -94 -4 0 -8 -5 -8 -11 0 -22 -252 -326 -280 -337 -7 -3 -63 76 -90 127 -17 32 -14 145 5 179 29 53 121 139 157 146 7 2 27 9 43 16 80 33 166 39 198 12z m-271 -551 l21 -20 -26 -6 c-41 -11 -56 -3 -46 23 10 27 23 28 51 3z m798 9 c0 -12 -8 -12 -35 0 -18 8 -17 9 8 9 15 1 27 -3 27 -9z m-42 -32 c18 -18 14 -28 -11 -28 -30 0 -40 10 -26 27 14 16 22 16 37 1z"/>
<path d="M2492 990 c-131 -47 -282 -206 -347 -366 -22 -55 -28 -86 -29 -154 0 -47 1 -98 4 -115 5 -30 5 -30 -47 -33 -50 -3 -123 18 -123 35 1 16 36 50 93 88 63 43 74 72 32 91 -20 10 -30 8 -62 -14 -21 -13 -32 -19 -25 -11 16 18 15 26 -5 33 -10 4 -26 -3 -45 -21 -25 -24 -28 -25 -28 -7 0 22 -18 44 -35 44 -7 0 -17 -10 -24 -23 -15 -28 -45 -48 -82 -54 -23 -3 -27 -1 -22 16 3 11 22 39 44 62 21 23 36 46 33 50 -9 15 -62 -19 -100 -65 -38 -46 -84 -73 -103 -61 -7 4 -7 12 1 25 15 24 4 37 -17 20 -9 -7 -18 -10 -21 -7 -3 3 3 12 15 19 26 16 28 38 4 38 -21 -1 -63 -36 -88 -74 -23 -35 -8 -55 29 -38 19 9 25 8 30 -4 6 -16 91 -20 101 -4 4 7 14 5 28 -5 29 -20 50 -19 97 5 24 12 41 16 45 10 7 -11 102 -8 160 5 30 6 30 6 -6 -17 -44 -27 -79 -75 -79 -110 0 -37 61 -60 153 -57 l70 2 23 -44 c43 -84 156 -129 322 -129 85 0 229 25 287 50 11 5 43 16 71 24 100 28 204 95 261 169 36 46 41 67 18 67 -8 0 -15 -6 -15 -12 0 -16 -46 -65 -102 -110 -65 -52 -205 -107 -360 -143 -67 -15 -212 -22 -258 -11 -14 3 -38 8 -55 12 -68 14 -155 88 -155 132 0 6 34 27 75 46 115 53 295 177 295 204 0 19 -14 14 -41 -14 -53 -56 -327 -210 -344 -192 -12 12 -26 126 -20 167 18 117 80 228 189 335 95 93 162 130 240 131 54 0 60 -3 85 -32 30 -37 41 -41 41 -17 0 9 -15 31 -34 50 -29 29 -41 34 -77 33 -24 0 -68 -9 -97 -19z"/>
<path d="M2037 733 c-14 -13 -6 -33 13 -33 11 0 20 4 20 9 0 13 -26 32 -33 24z"/>
</g>
</svg>