<?xml version="1.0" encoding="UTF-8"?>
<!-- Generator: Adobe Illustrator 16.0.0, SVG Export Plug-In . SVG Version: 6.00 Build 0)  -->
<!DOCTYPE svg PUBLIC "-//W3C//DTD SVG 1.1//EN" "http://www.w3.org/Graphics/SVG/1.1/DTD/svg11.dtd">
<svg version="1.1" id="Layer_1" xmlns="http://www.w3.org/2000/svg" xmlns:xlink="http://www.w3.org/1999/xlink" x="0px" y="0px" width="213.974px" height="233.971px" viewBox="0 0 213.974 233.971" enable-background="new 0 0 213.974 233.971" xml:space="preserve">
<g>
    <path fill="none" d="M0.987,118.652c0-38.163,0.044-76.324-0.084-114.486C0.894,1.183,1.505,0.58,4.486,0.584         c69.325,0.106,138.649,0.106,207.975,0c2.982-0.005,3.584,0.6,3.58,3.582c-0.104,76.323-0.104,152.648,0,228.971         c0.004,2.982-0.598,3.588-3.58,3.582c-69.325-0.105-138.649-0.105-207.975,0c-2.981,0.006-3.593-0.598-3.583-3.582         C1.031,194.975,0.987,156.814,0.987,118.652z M53.842,94.957c0.94,12.529,2.329,24.205,2.593,35.904         c0.669,29.639,5.787,59.127,3.056,88.889c-0.133,1.457,0.26,3.711,2.889,3.916c2.994,0.234,2.566-1.879,2.685-3.6         c0.091-1.326,0.003-2.666-0.024-3.998c-0.302-15.145-1.335-30.258-1.951-45.385c-1.027-25.27-2.707-50.486-4.719-75.686         c-0.105-1.32-0.621-2.758,0.519-3.789c3.69-3.344,8.259-3.731,12.948-3.674c3.629,0.046,5.066,2.474,6.254,5.396         c2.616,6.438,3.321,13.381,5.408,19.957c0.954,3.006,1.571,6.414,5.384,6.961c4.192,0.6,5.653-2.754,7.126-5.746         c2.158-4.387,4.209-8.826,6.503-13.656c1.897,5.172,2.933,10.096,5.892,14.191c4.469,6.186,9.37,6.771,15.092,1.752         c4.469-3.922,7.139-9.061,9.488-14.396c0.924-2.096,1.848-4.193,2.771-6.289c1.157,4.844,1.194,9.439,1.748,13.973         c0.176,1.434-0.325,4.332,2.506,4.035c2.333-0.244,2.775-2.336,2.996-4.504c0.829-8.096,3.586-15.66,6.809-23.061         c0.902-2.072,1.654-4.736,4.532-4.597c2.575,0.124,3.839,2.456,5.017,4.417c4.053,6.748,5.989,14.266,7.556,21.879         c0.385,1.871-0.4,4.398,2.385,4.717c3.188,0.365,3.231-2.807,3.464-4.51c1.248-9.135,5.576-17.163,8.738-25.602         c0.654-1.744,1.193-4.176,3.695-4.113c2.382,0.061,2.936,2.383,3.796,4.116c4.05,8.144,6.646,16.798,8.94,25.562         c0.424,1.617,0.949,3.615,3.199,2.549c1.678-0.793,3.814-1.949,2.109-4.555c-0.936-1.43-0.969-3.086-1.375-4.664         c-2.362-9.156-5.762-17.957-11.408-25.609c-3.285-4.451-6.857-4.207-10.199,0.061c-1.117,1.428-1.801,3.09-2.449,4.819         c-2.268,6.046-4.771,12.003-7.408,18.542c-0.684-1.326-1.109-2.013-1.408-2.75c-2.094-5.166-3.555-10.602-6.867-15.236         c-5.207-7.285-10.518-7.207-14.721,0.51c-2.068,3.801-3.606,7.892-5.421,11.932c-1.362-0.807-0.913-1.701-1.011-2.426         c-0.662-4.912-1.305-9.827-1.94-14.744c-0.187-1.438-0.724-2.753-2.345-2.689c-1.773,0.07-2.455,1.513-2.648,3.092         c-0.121,0.984-0.016,1.996-0.033,2.996c-0.193,10.723-3.722,20.342-9.697,29.137c-1.786,2.629-3.615,5.408-7.386,4.939         c-4.075-0.506-5.665-3.811-6.948-7.061c-1.694-4.287-3.07-8.672-3.191-13.396c-0.045-1.748-0.776-3.901-2.973-4.062         c-2.098-0.152-2.324,1.983-2.802,3.464c-1.776,5.502-4.019,10.803-6.786,15.873c-1.08,1.977-1.878,4.971-4.463,4.656         c-1.889-0.23-1.797-3.197-2.392-5.012c-0.612-1.867-0.812-3.879-1.506-5.709c-3.077-8.113-2.256-18.783-14.923-21.198         c6.326-3.263,11.014-7.259,16.906-9.211c1.146-0.38,3.303-0.843,2.186-3.03c-0.855-1.673-2.226-1.457-3.844-0.867         c-3.146,1.146-5.99,2.811-8.779,4.586c-6.654,4.236-13.271,8.529-20.283,13.045c-0.223-2.607-0.645-4.553-0.916-6.465         c-0.579-4.053-0.971-8.123,2.076-11.783c6.984-8.384,11.883-17.822,13.127-28.844c1.375-12.182-3.891-23.509-14.738-29.707         c-7.052-4.03-14.48,0.29-15.855,8.447c-0.711,4.215-0.01,8.293,0.825,12.322c2.61,12.592,5.479,25.13,8.124,37.716         c0.425,2.02,1.076,4.24-0.898,6.084C39.705,82.32,29.768,88.632,16.35,85.871c-2.086-0.43-5.021-1.188-5.322,2.48         c-0.273,3.322,2.567,3.104,4.514,3.195c10.555,0.5,20.341-2.017,28.986-8.236c2.189-1.575,4.036-3.63,6.18-5.592         c3.022,8.225,2.412,10.434-3.918,15.074c-3.73,2.735-7.536,5.369-11.229,8.154c-1.117,0.842-2.736,1.77-1.847,3.596         c0.979,2.01,2.854,1.461,4.373,0.918c1.21-0.434,2.232-1.396,3.33-2.135C45.338,100.689,49.255,98.047,53.842,94.957z          M134.834,42.553c-0.277-1.847-1.225-3.364-2.946-3.625c-2.017-0.307-2.937,1.349-3.024,3.108c-0.09,1.766,0.694,3.345,2.68,3.548         C133.638,45.797,134.211,44.062,134.834,42.553z"/>
    <path fill-rule="evenodd" clip-rule="evenodd" d="M53.842,94.957c-4.587,3.09-8.504,5.732-12.425,8.369         c-1.098,0.738-2.12,1.701-3.33,2.135c-1.52,0.543-3.394,1.092-4.373-0.918c-0.89-1.826,0.729-2.754,1.847-3.596         c3.692-2.785,7.498-5.419,11.229-8.154c6.33-4.641,6.94-6.85,3.918-15.074c-2.144,1.962-3.99,4.017-6.18,5.592         c-8.646,6.22-18.432,8.736-28.986,8.236c-1.946-0.092-4.787,0.127-4.514-3.195c0.301-3.668,3.236-2.91,5.322-2.48         c13.418,2.761,23.355-3.551,32.523-12.104c1.975-1.844,1.323-4.064,0.898-6.084c-2.645-12.586-5.514-25.124-8.124-37.716         c-0.835-4.029-1.536-8.106-0.825-12.322c1.375-8.157,8.804-12.477,15.855-8.447c10.848,6.198,16.113,17.525,14.738,29.707         c-1.244,11.022-6.143,20.46-13.127,28.844c-3.047,3.66-2.655,7.73-2.076,11.783c0.271,1.912,0.693,3.857,0.916,6.465         c7.012-4.516,13.629-8.809,20.283-13.045c2.789-1.775,5.633-3.439,8.779-4.586c1.618-0.59,2.988-0.806,3.844,0.867         c1.117,2.188-1.039,2.65-2.186,3.03c-5.893,1.952-10.58,5.948-16.906,9.211c12.667,2.415,11.846,13.085,14.923,21.198         c0.694,1.83,0.894,3.842,1.506,5.709c0.595,1.814,0.503,4.781,2.392,5.012c2.585,0.314,3.383-2.68,4.463-4.656         c2.768-5.07,5.01-10.371,6.786-15.873c0.478-1.48,0.704-3.616,2.802-3.464c2.196,0.16,2.928,2.313,2.973,4.062         c0.121,4.725,1.497,9.109,3.191,13.396c1.283,3.25,2.873,6.555,6.948,7.061c3.771,0.469,5.6-2.311,7.386-4.939         c5.976-8.795,9.504-18.414,9.697-29.137c0.018-1-0.088-2.012,0.033-2.996c0.193-1.579,0.875-3.021,2.648-3.092         c1.621-0.063,2.158,1.251,2.345,2.689c0.636,4.917,1.278,9.832,1.94,14.744c0.098,0.725-0.352,1.619,1.011,2.426         c1.814-4.04,3.353-8.131,5.421-11.932c4.203-7.717,9.514-7.795,14.721-0.51c3.312,4.635,4.773,10.07,6.867,15.236         c0.299,0.737,0.725,1.424,1.408,2.75c2.637-6.539,5.141-12.496,7.408-18.542c0.648-1.729,1.332-3.392,2.449-4.819         c3.342-4.268,6.914-4.512,10.199-0.061c5.646,7.652,9.046,16.453,11.408,25.609c0.406,1.578,0.439,3.234,1.375,4.664         c1.705,2.605-0.432,3.762-2.109,4.555c-2.25,1.066-2.775-0.932-3.199-2.549c-2.294-8.764-4.891-17.418-8.94-25.562         c-0.86-1.733-1.414-4.056-3.796-4.116c-2.502-0.062-3.041,2.369-3.695,4.113c-3.162,8.438-7.49,16.467-8.738,25.602         c-0.232,1.703-0.275,4.875-3.464,4.51c-2.785-0.318-2-2.846-2.385-4.717c-1.566-7.613-3.503-15.131-7.556-21.879         c-1.178-1.961-2.441-4.293-5.017-4.417c-2.878-0.14-3.63,2.524-4.532,4.597c-3.223,7.4-5.979,14.965-6.809,23.061         c-0.221,2.168-0.663,4.26-2.996,4.504c-2.831,0.297-2.33-2.602-2.506-4.035c-0.554-4.533-0.591-9.129-1.748-13.973         c-0.924,2.096-1.848,4.193-2.771,6.289c-2.35,5.336-5.02,10.475-9.488,14.396c-5.722,5.02-10.623,4.434-15.092-1.752         c-2.959-4.096-3.994-9.02-5.892-14.191c-2.294,4.83-4.345,9.27-6.503,13.656c-1.473,2.992-2.934,6.346-7.126,5.746         c-3.812-0.547-4.43-3.955-5.384-6.961c-2.087-6.576-2.792-13.52-5.408-19.957c-1.188-2.923-2.625-5.351-6.254-5.396         c-4.689-0.058-9.258,0.33-12.948,3.674c-1.14,1.031-0.624,2.469-0.519,3.789c2.012,25.199,3.691,50.416,4.719,75.686         c0.616,15.127,1.649,30.24,1.951,45.385c0.027,1.332,0.115,2.672,0.024,3.998c-0.118,1.721,0.31,3.834-2.685,3.6         c-2.629-0.205-3.021-2.459-2.889-3.916c2.731-29.762-2.387-59.25-3.056-88.889C56.171,119.162,54.782,107.486,53.842,94.957z          M54.498,67.261c9.398-12.333,15.961-24.406,12.396-39.502c-1.677-7.097-5.589-12.513-13.333-14.353         c-6.408-1.523-9.214,0.548-8.504,7.027c0.449,4.088,1.18,8.159,2.02,12.189C49.406,43.816,51.859,54.984,54.498,67.261z"/>
    <path fill-rule="evenodd" clip-rule="evenodd" d="M134.834,42.553c-0.623,1.51-1.196,3.245-3.291,3.031         c-1.985-0.203-2.77-1.783-2.68-3.548c0.088-1.759,1.008-3.415,3.024-3.108C133.609,39.189,134.557,40.706,134.834,42.553z"/>
    <path fill-rule="evenodd" clip-rule="evenodd" fill="none" d="M54.498,67.261c-2.639-12.276-5.092-23.444-7.422-34.639         c-0.84-4.03-1.57-8.101-2.02-12.189c-0.71-6.479,2.096-8.55,8.504-7.027c7.744,1.84,11.656,7.256,13.333,14.353         C70.459,42.854,63.896,54.928,54.498,67.261z"/>
</g>
</svg>